<svg width="1205" height="886" viewBox="0 0 1205 886" fill="none" xmlns="http://www.w3.org/2000/svg">
<g id="rect1637">
<mask id="path-1-inside-1_112_22" fill="white">
<path d="M181.124 263.442C179.786 263.931 178.895 265.234 178.994 268.308C179.013 268.883 179.115 269.554 179.169 270.169C178.939 270.096 178.828 270.18 179.095 270.793C179.149 270.918 179.205 271.059 179.259 271.183C180.408 281.17 185.627 295.67 190.443 307.857C192.777 313.765 195.276 309.854 197.651 305.87C200.238 307.147 201.466 303.477 203.183 301.498C203.973 302.618 204.7 305.025 205.346 309.463C228.916 308.94 252.568 308.628 276.555 309.261C256.139 317.045 235.929 325.339 216.074 334.494C212.57 333.04 209.349 332.031 210.683 338.419C211.693 343.253 214.007 347.912 216.787 352.505L169.965 371.58C156.435 373.097 142.65 373.945 129.592 376.708C115.57 379.421 101.539 382.168 88.4738 387.308C81.7892 390.031 90.5454 415.107 98.4758 422.616C89.402 429.268 80.3292 435.921 71.2413 442.54C70.1127 441.12 69.0006 439.71 67.6996 438.204C62.5736 432.274 61.1807 440.339 58.2362 442.161C51.4822 446.345 34.61 460.311 28.2747 465.433C28.5071 467.495 28.6428 469.465 28.8142 471.467C26.8295 472.617 24.8472 473.771 22.7973 474.765C22.4637 474.927 20.7367 473.045 21.2958 473.733C24.1411 477.234 26.9741 480.607 29.8097 483.991C30.4281 492.443 31.2128 501.057 33.4164 511.042C34.3387 515.222 37.0978 512.294 38.4829 511.707C42.0119 510.21 45.3351 508.208 48.6061 506.092C51.0016 510.209 53.1512 513.403 55.1302 515.94C56.0682 518.495 57.084 521.182 58.2615 524.121C59.9917 528.438 60.6977 526.436 61.008 521.9C69.9637 528.183 74.5052 517.178 81.4214 512.77C89.6597 507.52 97.8148 502.079 105.988 496.678C107.342 498.068 108.67 499.353 109.737 500.235C114.242 503.96 115.94 498.501 118.959 497.427C122.836 496.048 126.642 494.474 130.435 492.87C126.254 496.381 122.072 499.886 118.039 503.716C114.337 506.826 110.635 509.936 106.93 513.037C103.626 514.455 100.686 516.582 98.4869 520.137C98.2668 520.325 98.0442 520.508 97.8241 520.696C94.5829 523.478 88.5943 521.558 86.1695 525.765C84.5907 526.618 83.6848 528.557 84.3332 533.003C84.3727 533.279 84.4795 533.618 84.5311 533.906C82.8731 532.801 82.1093 535.27 81.3634 537.772C79.9722 538.244 79.2135 540.647 78.4559 543.058C77.5693 544.058 76.9481 544.79 76.2351 545.606C75.8942 545.919 75.3098 546.409 74.988 546.707C66.6017 554.482 59.6885 553.309 59.6655 564.405C58.5304 565.453 57.405 566.522 56.2695 567.568C55.1729 567.677 52.6926 566.734 54.0078 568.677C54.1397 568.872 54.2841 569.093 54.4165 569.29C53.3117 570.307 52.2171 571.348 51.1118 572.364C51.6488 573.552 51.9621 574.43 52.3929 575.469C49.5785 577.348 46.2792 579.426 44.0692 580.962C41.6679 582.63 37.3132 581.025 35.0029 582.876C32.0563 582.485 30.4709 583.99 32.0703 589.934C33.7887 596.319 36.8503 603.994 40.2547 610.765C42.815 616.66 45.7421 622.286 48.4852 626.324C51.1452 630.24 52.6726 629.632 53.6657 626.891C56.4038 625.861 57.5317 619.615 60.0292 617.757C62.5855 621.865 65.1854 625.518 67.2595 627.844C72.2086 633.393 72.9603 624.287 75.813 622.512C80.9318 618.636 87.3003 613.805 93.4477 609.007C101.497 606.829 109.12 603.571 116.915 600.751C124.318 598.072 131.65 595.218 139.014 592.443C132.678 600.319 126.525 608.583 120.435 616.975C89.0726 639.479 57.6196 661.776 26.0847 683.882C20.4647 687.659 13.9011 689.351 9.22122 695.209C7.91137 696.848 6.46843 698.585 5.08885 700.35C2.88083 699.162 1.04474 698.497 2.3457 702.331C2.49748 702.78 2.69175 703.182 2.85797 703.614C-1.37177 710.833 -1.8856 720.741 15.9175 739.846C19.2928 743.468 20.8151 739.887 23.2348 739.831C33.713 739.586 46.1812 738.907 56.2928 738.429C66.09 737.678 74.5387 737.1 82.9736 736.371C80.8516 738.819 79.3068 740.621 76.8868 743.427C67.7993 754.921 57.5039 763.82 48.1506 774.74C45.9033 777.364 41.9359 777.062 41.7731 783.371C41.6068 789.839 42.5633 804.793 47.2555 809.641C50.5864 813.083 53.9763 815.066 57.351 816.12C57.7408 817.135 58.2017 818.118 58.8401 819.021C61.3821 822.621 62.276 820.203 62.9752 817.048C77.8497 817.084 91.5151 800.31 97.0479 796.05C121.041 775.825 144.85 755.183 168.677 734.586C168.498 736.473 168.363 738.436 168.115 740.204C171.129 744.697 174.183 749.94 177.208 754.615C175.193 755.867 172.728 757.382 171.269 758.288C169.746 754.248 168.024 749.309 165.86 742.292C159.593 747.778 153.299 753.202 147.058 758.747C138.635 766.23 128.602 769.31 124.906 784.667C123.064 785.907 121.368 787.473 119.917 789.58C119.121 790.737 121.385 791.292 123.753 792.152C123.185 798.573 123.408 806.548 124.809 816.87C125.659 823.137 132.816 826.536 135.491 826.584C142.148 826.705 147.176 822.638 151.841 817.652C153.179 820.255 155.505 823.397 159.284 827.245C161.87 854.095 167.382 845.654 169.823 842.203C171.24 841.425 172.713 840.779 174.156 840.065C177.712 842.621 179.51 839.911 181.143 836.727C187.685 833.848 194.337 831.237 200.888 828.378C198.73 834.244 199.064 841.127 215.337 849.25C217.142 858.427 219.05 864.868 219.585 859.924C221.421 857.744 223.294 855.644 225.135 853.477C226.168 853.876 226.894 854.257 228.008 854.662C236.04 857.58 238.833 846.432 244.269 842.377C244.517 842.194 251.261 837.25 256.834 833.141C256.115 834.126 255.402 835.125 254.686 836.117C253.978 837.079 253.258 838.018 252.559 839C249.778 840.716 244.394 838.44 245.671 846.534C245.728 846.893 245.783 847.18 245.84 847.533C242.642 850.18 238.028 852.678 249.665 867.276C255.498 891.389 260.576 886.386 263.778 882.523C267.309 884.928 267.576 876.997 269.734 874.979C276.638 868.523 284.215 862.453 291.355 856.546C293.136 855.13 294.922 853.726 296.7 852.3L298.411 856.501L425.483 804.733C427.336 806.454 429.613 808.254 432.213 810.091C434.284 815.497 436.041 817.855 436.379 812.851C437.472 813.539 438.513 814.227 439.721 814.929C447.95 819.709 450.336 807.775 455.55 803.99C461.553 799.632 467.442 795.014 473.38 790.507C478.082 802.111 484.34 813.979 490.291 821.95C490.402 822.184 490.457 822.329 490.568 822.566C491.016 823.515 491.313 823.745 491.522 823.567C491.667 823.75 491.817 823.973 491.961 824.15C493.896 826.523 494.99 825.786 495.911 824.389C499.611 830.81 503.339 836.353 506.642 838.946C509.19 840.945 530.828 821.368 530.949 821.265C537.175 815.237 541.893 810.82 547.247 804.83C548.729 804.86 549.796 803.631 550.676 801.84C551.953 801.559 553.459 801.509 552.347 798.448C552.309 798.346 552.286 798.283 552.249 798.183C552.915 796.599 553.62 795.136 554.525 794.274C561.287 787.827 567.998 781.256 574.761 774.811C608.238 742.91 595.902 754.44 632.342 722.426C633.907 721.102 635.504 719.848 637.073 718.533L689.821 697.043C680.736 707.399 670.876 718.709 667.912 722.56C665.009 726.332 662.487 730.896 659.773 735.06C659.32 737.504 656.207 738.584 658.414 742.392C665.588 754.769 670.762 762.636 674.793 767.494C676.713 773.21 678.008 775.865 677.054 770.403C677.097 770.333 677.146 770.264 677.191 770.193C686.404 779.521 688.865 770.032 697.942 764.027C704.463 759.712 710.873 755.147 717.306 750.63C753.796 725.017 720.374 747.934 752.548 726.038C762.502 719.924 764.462 718.222 774.119 713.843C776.435 712.792 779.017 712.38 781.218 711.053C789.454 706.087 796.335 697.889 803.43 690.379C810.259 683.363 816.185 674.438 821.605 664.503C823.548 660.943 825.231 656.858 827.378 653.712C831.843 647.173 836.658 641.367 841.354 635.309L895.261 613.347C896.059 614.361 896.861 615.356 897.662 616.352C898.697 620.223 899.855 624.132 901.378 628.141C902.824 631.945 902.716 626.402 903.134 623.358C904.261 624.82 905.4 626.233 906.506 627.797C925.605 616.792 943.218 602.327 961.608 589.674C962.034 591.241 962.599 592.81 963.492 594.397C975.54 615.855 983.875 608.21 989.25 606.154C996.091 603.537 1003.16 600.78 1009.45 596.872C1013.48 594.375 1017.24 591.282 1021.14 588.485C1035.27 577.678 1047.15 562.012 1059.14 546.583L1085.79 535.729L1080.82 523.549C1082.34 525.737 1082.45 522.001 1082.97 520.661C1083.18 520.088 1083.64 519.388 1084.03 518.703C1087.19 514.687 1090.36 510.701 1093.44 506.514C1105.95 493.426 1118.92 481.366 1131.39 468.208C1131.42 468.19 1147.69 450.868 1148.8 448.238C1149.75 445.979 1149.35 441.403 1149.63 437.988C1143.56 430.833 1136.88 420.595 1130.91 413.94C1130.88 413.979 1130.77 414.104 1130.74 414.144C1130.7 413.967 1130.62 413.756 1130.58 413.581C1130.59 413.573 1130.59 413.584 1130.6 413.574C1129.77 412.661 1128.96 411.874 1128.16 411.127C1130.12 408.214 1132.25 405.286 1130.11 397.558C1127.48 388.101 1121.59 379.747 1116.36 371.18C1117.83 370.216 1118.24 369.972 1121.76 367.674C1123.29 366.676 1124.63 365.911 1125.99 365.089C1126.86 365.31 1127.59 365.35 1127.42 364.215C1129.2 362.939 1130.77 361.213 1132.02 358.243C1133.85 361.787 1135.72 364.826 1137.64 366.748C1144.06 373.168 1145.38 362.513 1149.17 360.201C1166.02 349.928 1182.15 337.979 1198.09 325.616C1199.14 323.712 1203.16 325.122 1201.25 319.902C1199.01 313.763 1196.27 307.001 1193.32 300.714C1195.47 298.802 1197.66 296.947 1199.72 294.836C1201.12 293.402 1205.93 295.17 1203.56 289.746C1199.83 281.221 1195.32 274.356 1190.75 267.616C1189.6 263.164 1188.31 258.68 1186.5 254.076C1185 250.252 1184.59 254.757 1183.84 257.161C1183.23 256.215 1182.61 255.319 1182.01 254.346C1169.41 260.059 1157.11 266.511 1144.87 273.106C1144.28 270.704 1143.72 268.34 1143.31 266.148C1141.91 265.75 1140.45 265.164 1139.01 264.646C1141.92 262.563 1144.81 260.444 1147.56 257.994C1149.87 255.937 1157.63 257.673 1153.47 249.654C1148.14 239.36 1143.37 231.921 1139.03 226.494C1138.62 224.393 1138.13 222.118 1137.58 219.743C1143.1 214.459 1148.68 206.055 1130.15 201.47C1130.94 196.744 1131.28 193.038 1131.23 190.22C1132.85 190.379 1133.63 189.452 1132.2 185.554C1131.46 183.578 1130.77 181.982 1130.07 180.271C1128.62 172.065 1124.96 161.698 1117.53 148.18C1112.3 138.651 1110.29 149.479 1107.01 150.96C1097.62 155.187 1088.68 160.426 1079.89 166.041C1079.71 164.17 1079.57 162.444 1079.34 160.416C1078.67 154.374 1076.01 165.081 1074.02 166.705C1072.52 167.921 1070.98 169.01 1069.47 170.185C1067.76 169.296 1066.11 168.597 1064.57 168.197C1063.44 160.403 1059.22 151.511 1049.49 141.873C1048.27 136.5 1045.28 129.681 1039.04 120.88C1032.81 112.106 1029.34 118.289 1025.28 119.147C1020.08 120.246 1016.04 124.209 1011.41 126.728C1009.42 127.812 1007.43 128.896 1005.43 129.979C1005.41 129.827 1005.37 129.657 1005.35 129.502C1006.05 128.832 1006.48 128.401 1008.65 126.737C1007.91 125.526 1007.16 124.102 1006.41 122.784C1009.24 119.447 1012.09 116.172 1014.95 112.9C1018.6 109.125 1022.24 105.321 1025.89 101.545C1032.93 94.2578 1050.12 76.3611 1058.14 68.3935C1059.95 66.599 1064.13 68.4843 1065.03 65.316C1067.12 65.5864 1068.23 64.6216 1066.83 60.5971C1063.55 51.1061 1058.81 39.9347 1053.97 31.8944C1052.7 29.3201 1051.42 26.7715 1050.16 24.4653C1048.76 21.9005 1047.91 22.0534 1047.37 23.6878C1044.28 22.4201 1043.8 29.9475 1041.71 32.008C1040.95 32.7594 1039.36 34.4484 1038.39 35.4292C1038.37 35.3659 1038.35 35.3303 1038.33 35.267C1025.61 46.7678 1013.45 59.5195 1001.6 72.9055C1000.13 68.5914 998.478 64.4134 996.374 60.5437C992.555 53.5171 990.475 59.8784 987.87 60.4665C982.215 61.7426 976.888 63.8509 971.635 66.1313C969.434 67.0871 967.289 68.187 965.11 69.1962C964.445 67.4884 963.705 65.7985 962.892 64.1179C959.442 57.0093 957.691 64.6575 955.313 65.4939C953.308 66.1995 951.372 67.0754 949.42 67.9119C948.537 67.0287 947.705 66.1545 946.724 65.2481C944.898 63.5628 943.348 62.821 941.913 62.4799C943.88 60.338 945.845 58.1908 947.71 55.831C952.602 49.6406 971.651 44.6596 941.449 2.83159C936.993 -3.33872 935.826 4.56617 933.232 5.95934C932.887 6.14598 932.495 6.41359 932.144 6.60584C931.201 6.16422 930.28 6.23963 929.362 6.50227C926.397 2.25575 925.494 7.33249 923.784 8.75768C915.13 11.6299 906.254 13.9419 897.125 15.6023C877.908 19.1287 858.545 22.3048 840.411 28.6069C806.692 40.3601 772.579 51.1488 739.615 64.7727C704.249 80.7513 669.699 98.6904 636.019 118.687C633.087 112.011 629.456 114.286 626.998 114.482C620.954 114.964 616.003 118.286 610.839 120.996C597.945 127.758 586.348 136.137 574.544 144.747C573.411 143.019 571.171 144.053 570.058 144.337C566.591 145.223 563.874 147.952 560.813 149.832C560.709 149.897 553.163 154.502 546.009 159.151C545.91 158.982 545.807 158.829 545.7 158.667C544.947 156.918 544.227 155.2 543.581 153.514C543.262 153.857 542.932 154.177 542.612 154.519C542.52 154.419 542.42 154.273 542.325 154.178C536.317 148.352 535.793 159.915 532.493 162.708C524.568 169.418 516.635 176.125 508.673 182.767C507.909 180.99 507.084 179.248 506.15 177.575C501.834 169.841 501.212 181.069 498.862 183.086C498.839 183.105 492.692 188.78 486.692 194.382C486.547 194.431 486.405 194.493 486.258 194.542C467.84 200.649 449.222 206.259 430.418 211.393C415.677 215.268 400.893 219.023 386.031 222.579C385.806 222.487 385.59 222.419 385.365 222.325C382.455 221.104 376.701 213.496 376.439 218.014C372.086 215.386 367.863 213.233 372.468 225.58C361.639 228.06 350.824 230.577 339.876 232.756C307.505 239.199 304.969 239.084 272.718 244.593C261.462 246.516 250.243 248.543 239.006 250.515C219.541 254.721 206.714 256.591 189.003 263.226C186.82 264.043 183.357 262.618 181.128 263.434L181.124 263.442ZM1130.59 413.58C1130.7 413.694 1130.81 413.826 1130.91 413.943C1132.71 411.774 1132.69 411.628 1130.59 413.58ZM325.65 275.551C333.216 274.244 340.505 272.954 354.26 270.216C356.75 269.721 359.189 269.099 361.672 268.586C363.253 272.505 364.983 276.496 366.685 280.474C367.284 282.781 368.046 285.122 368.943 287.502C368.327 287.763 367.709 288.017 367.091 288.273C365.79 286.239 364.144 283.83 362.553 281.48C362.124 280.398 361.726 279.266 361.287 278.216C360.304 275.864 359.521 275.488 358.839 276.163C354.779 271.325 352.752 276.617 349.649 276.484C315.419 275.022 332.07 275.909 325.65 275.551V275.551ZM191.475 653.836C192.538 656.462 193.616 659.091 194.764 661.664C187.935 667.533 181.099 673.39 174.279 679.279C173.231 679.578 172.19 679.894 171.14 680.185C176.341 672.746 181.465 665.153 186.588 657.556C187.07 657.209 190.638 654.587 191.475 653.836L191.475 653.836ZM210.918 721.191C212.609 724.052 214.32 726.782 216.041 729.407C214.363 730.117 212.936 731.294 212.008 733.389C206.377 736.767 202.878 738.762 195.514 743.294C195.46 743.191 195.412 743.09 195.357 742.985C196.681 740.631 197.94 738.128 199.438 736.171C202.173 732.596 206.7 726.881 210.918 721.191V721.191ZM768.68 664.918L781.802 659.572C776.861 664.987 771.867 670.348 766.095 673.817C763.794 675.201 761.104 675.651 758.684 676.751C757.549 677.269 757.121 677.575 756.169 678.031C760.305 673.586 764.518 669.307 768.681 664.919L768.68 664.918ZM522.999 775.479C522.995 775.834 523.043 776.224 523.085 776.613C521.815 777.856 520.346 779.286 518.982 780.59C520.322 778.889 521.656 777.174 522.999 775.479L522.999 775.479ZM980.599 604.512C980.224 606.22 979.096 607.522 976.798 608.179C978.036 606.897 979.347 605.766 980.599 604.512Z"/>
</mask>
<path d="M181.124 263.442C179.786 263.931 178.895 265.234 178.994 268.308C179.013 268.883 179.115 269.554 179.169 270.169C178.939 270.096 178.828 270.18 179.095 270.793C179.149 270.918 179.205 271.059 179.259 271.183C180.408 281.17 185.627 295.67 190.443 307.857C192.777 313.765 195.276 309.854 197.651 305.87C200.238 307.147 201.466 303.477 203.183 301.498C203.973 302.618 204.7 305.025 205.346 309.463C228.916 308.94 252.568 308.628 276.555 309.261C256.139 317.045 235.929 325.339 216.074 334.494C212.57 333.04 209.349 332.031 210.683 338.419C211.693 343.253 214.007 347.912 216.787 352.505L169.965 371.58C156.435 373.097 142.65 373.945 129.592 376.708C115.57 379.421 101.539 382.168 88.4738 387.308C81.7892 390.031 90.5454 415.107 98.4758 422.616C89.402 429.268 80.3292 435.921 71.2413 442.54C70.1127 441.12 69.0006 439.71 67.6996 438.204C62.5736 432.274 61.1807 440.339 58.2362 442.161C51.4822 446.345 34.61 460.311 28.2747 465.433C28.5071 467.495 28.6428 469.465 28.8142 471.467C26.8295 472.617 24.8472 473.771 22.7973 474.765C22.4637 474.927 20.7367 473.045 21.2958 473.733C24.1411 477.234 26.9741 480.607 29.8097 483.991C30.4281 492.443 31.2128 501.057 33.4164 511.042C34.3387 515.222 37.0978 512.294 38.4829 511.707C42.0119 510.21 45.3351 508.208 48.6061 506.092C51.0016 510.209 53.1512 513.403 55.1302 515.94C56.0682 518.495 57.084 521.182 58.2615 524.121C59.9917 528.438 60.6977 526.436 61.008 521.9C69.9637 528.183 74.5052 517.178 81.4214 512.77C89.6597 507.52 97.8148 502.079 105.988 496.678C107.342 498.068 108.67 499.353 109.737 500.235C114.242 503.96 115.94 498.501 118.959 497.427C122.836 496.048 126.642 494.474 130.435 492.87C126.254 496.381 122.072 499.886 118.039 503.716C114.337 506.826 110.635 509.936 106.93 513.037C103.626 514.455 100.686 516.582 98.4869 520.137C98.2668 520.325 98.0442 520.508 97.8241 520.696C94.5829 523.478 88.5943 521.558 86.1695 525.765C84.5907 526.618 83.6848 528.557 84.3332 533.003C84.3727 533.279 84.4795 533.618 84.5311 533.906C82.8731 532.801 82.1093 535.27 81.3634 537.772C79.9722 538.244 79.2135 540.647 78.4559 543.058C77.5693 544.058 76.9481 544.79 76.2351 545.606C75.8942 545.919 75.3098 546.409 74.988 546.707C66.6017 554.482 59.6885 553.309 59.6655 564.405C58.5304 565.453 57.405 566.522 56.2695 567.568C55.1729 567.677 52.6926 566.734 54.0078 568.677C54.1397 568.872 54.2841 569.093 54.4165 569.29C53.3117 570.307 52.2171 571.348 51.1118 572.364C51.6488 573.552 51.9621 574.43 52.3929 575.469C49.5785 577.348 46.2792 579.426 44.0692 580.962C41.6679 582.63 37.3132 581.025 35.0029 582.876C32.0563 582.485 30.4709 583.99 32.0703 589.934C33.7887 596.319 36.8503 603.994 40.2547 610.765C42.815 616.66 45.7421 622.286 48.4852 626.324C51.1452 630.24 52.6726 629.632 53.6657 626.891C56.4038 625.861 57.5317 619.615 60.0292 617.757C62.5855 621.865 65.1854 625.518 67.2595 627.844C72.2086 633.393 72.9603 624.287 75.813 622.512C80.9318 618.636 87.3003 613.805 93.4477 609.007C101.497 606.829 109.12 603.571 116.915 600.751C124.318 598.072 131.65 595.218 139.014 592.443C132.678 600.319 126.525 608.583 120.435 616.975C89.0726 639.479 57.6196 661.776 26.0847 683.882C20.4647 687.659 13.9011 689.351 9.22122 695.209C7.91137 696.848 6.46843 698.585 5.08885 700.35C2.88083 699.162 1.04474 698.497 2.3457 702.331C2.49748 702.78 2.69175 703.182 2.85797 703.614C-1.37177 710.833 -1.8856 720.741 15.9175 739.846C19.2928 743.468 20.8151 739.887 23.2348 739.831C33.713 739.586 46.1812 738.907 56.2928 738.429C66.09 737.678 74.5387 737.1 82.9736 736.371C80.8516 738.819 79.3068 740.621 76.8868 743.427C67.7993 754.921 57.5039 763.82 48.1506 774.74C45.9033 777.364 41.9359 777.062 41.7731 783.371C41.6068 789.839 42.5633 804.793 47.2555 809.641C50.5864 813.083 53.9763 815.066 57.351 816.12C57.7408 817.135 58.2017 818.118 58.8401 819.021C61.3821 822.621 62.276 820.203 62.9752 817.048C77.8497 817.084 91.5151 800.31 97.0479 796.05C121.041 775.825 144.85 755.183 168.677 734.586C168.498 736.473 168.363 738.436 168.115 740.204C171.129 744.697 174.183 749.94 177.208 754.615C175.193 755.867 172.728 757.382 171.269 758.288C169.746 754.248 168.024 749.309 165.86 742.292C159.593 747.778 153.299 753.202 147.058 758.747C138.635 766.23 128.602 769.31 124.906 784.667C123.064 785.907 121.368 787.473 119.917 789.58C119.121 790.737 121.385 791.292 123.753 792.152C123.185 798.573 123.408 806.548 124.809 816.87C125.659 823.137 132.816 826.536 135.491 826.584C142.148 826.705 147.176 822.638 151.841 817.652C153.179 820.255 155.505 823.397 159.284 827.245C161.87 854.095 167.382 845.654 169.823 842.203C171.24 841.425 172.713 840.779 174.156 840.065C177.712 842.621 179.51 839.911 181.143 836.727C187.685 833.848 194.337 831.237 200.888 828.378C198.73 834.244 199.064 841.127 215.337 849.25C217.142 858.427 219.05 864.868 219.585 859.924C221.421 857.744 223.294 855.644 225.135 853.477C226.168 853.876 226.894 854.257 228.008 854.662C236.04 857.58 238.833 846.432 244.269 842.377C244.517 842.194 251.261 837.25 256.834 833.141C256.115 834.126 255.402 835.125 254.686 836.117C253.978 837.079 253.258 838.018 252.559 839C249.778 840.716 244.394 838.44 245.671 846.534C245.728 846.893 245.783 847.18 245.84 847.533C242.642 850.18 238.028 852.678 249.665 867.276C255.498 891.389 260.576 886.386 263.778 882.523C267.309 884.928 267.576 876.997 269.734 874.979C276.638 868.523 284.215 862.453 291.355 856.546C293.136 855.13 294.922 853.726 296.7 852.3L298.411 856.501L425.483 804.733C427.336 806.454 429.613 808.254 432.213 810.091C434.284 815.497 436.041 817.855 436.379 812.851C437.472 813.539 438.513 814.227 439.721 814.929C447.95 819.709 450.336 807.775 455.55 803.99C461.553 799.632 467.442 795.014 473.38 790.507C478.082 802.111 484.34 813.979 490.291 821.95C490.402 822.184 490.457 822.329 490.568 822.566C491.016 823.515 491.313 823.745 491.522 823.567C491.667 823.75 491.817 823.973 491.961 824.15C493.896 826.523 494.99 825.786 495.911 824.389C499.611 830.81 503.339 836.353 506.642 838.946C509.19 840.945 530.828 821.368 530.949 821.265C537.175 815.237 541.893 810.82 547.247 804.83C548.729 804.86 549.796 803.631 550.676 801.84C551.953 801.559 553.459 801.509 552.347 798.448C552.309 798.346 552.286 798.283 552.249 798.183C552.915 796.599 553.62 795.136 554.525 794.274C561.287 787.827 567.998 781.256 574.761 774.811C608.238 742.91 595.902 754.44 632.342 722.426C633.907 721.102 635.504 719.848 637.073 718.533L689.821 697.043C680.736 707.399 670.876 718.709 667.912 722.56C665.009 726.332 662.487 730.896 659.773 735.06C659.32 737.504 656.207 738.584 658.414 742.392C665.588 754.769 670.762 762.636 674.793 767.494C676.713 773.21 678.008 775.865 677.054 770.403C677.097 770.333 677.146 770.264 677.191 770.193C686.404 779.521 688.865 770.032 697.942 764.027C704.463 759.712 710.873 755.147 717.306 750.63C753.796 725.017 720.374 747.934 752.548 726.038C762.502 719.924 764.462 718.222 774.119 713.843C776.435 712.792 779.017 712.38 781.218 711.053C789.454 706.087 796.335 697.889 803.43 690.379C810.259 683.363 816.185 674.438 821.605 664.503C823.548 660.943 825.231 656.858 827.378 653.712C831.843 647.173 836.658 641.367 841.354 635.309L895.261 613.347C896.059 614.361 896.861 615.356 897.662 616.352C898.697 620.223 899.855 624.132 901.378 628.141C902.824 631.945 902.716 626.402 903.134 623.358C904.261 624.82 905.4 626.233 906.506 627.797C925.605 616.792 943.218 602.327 961.608 589.674C962.034 591.241 962.599 592.81 963.492 594.397C975.54 615.855 983.875 608.21 989.25 606.154C996.091 603.537 1003.16 600.78 1009.45 596.872C1013.48 594.375 1017.24 591.282 1021.14 588.485C1035.27 577.678 1047.15 562.012 1059.14 546.583L1085.79 535.729L1080.82 523.549C1082.34 525.737 1082.45 522.001 1082.97 520.661C1083.18 520.088 1083.64 519.388 1084.03 518.703C1087.19 514.687 1090.36 510.701 1093.44 506.514C1105.95 493.426 1118.92 481.366 1131.39 468.208C1131.42 468.19 1147.69 450.868 1148.8 448.238C1149.75 445.979 1149.35 441.403 1149.63 437.988C1143.56 430.833 1136.88 420.595 1130.91 413.94C1130.88 413.979 1130.77 414.104 1130.74 414.144C1130.7 413.967 1130.62 413.756 1130.58 413.581C1130.59 413.573 1130.59 413.584 1130.6 413.574C1129.77 412.661 1128.96 411.874 1128.16 411.127C1130.12 408.214 1132.25 405.286 1130.11 397.558C1127.48 388.101 1121.59 379.747 1116.36 371.18C1117.83 370.216 1118.24 369.972 1121.76 367.674C1123.29 366.676 1124.63 365.911 1125.99 365.089C1126.86 365.31 1127.59 365.35 1127.42 364.215C1129.2 362.939 1130.77 361.213 1132.02 358.243C1133.85 361.787 1135.72 364.826 1137.64 366.748C1144.06 373.168 1145.38 362.513 1149.17 360.201C1166.02 349.928 1182.15 337.979 1198.09 325.616C1199.14 323.712 1203.16 325.122 1201.25 319.902C1199.01 313.763 1196.27 307.001 1193.32 300.714C1195.47 298.802 1197.66 296.947 1199.72 294.836C1201.12 293.402 1205.93 295.17 1203.56 289.746C1199.83 281.221 1195.32 274.356 1190.75 267.616C1189.6 263.164 1188.31 258.68 1186.5 254.076C1185 250.252 1184.59 254.757 1183.84 257.161C1183.23 256.215 1182.61 255.319 1182.01 254.346C1169.41 260.059 1157.11 266.511 1144.87 273.106C1144.28 270.704 1143.72 268.34 1143.31 266.148C1141.91 265.75 1140.45 265.164 1139.01 264.646C1141.92 262.563 1144.81 260.444 1147.56 257.994C1149.87 255.937 1157.63 257.673 1153.47 249.654C1148.14 239.36 1143.37 231.921 1139.03 226.494C1138.62 224.393 1138.13 222.118 1137.58 219.743C1143.1 214.459 1148.68 206.055 1130.15 201.47C1130.94 196.744 1131.28 193.038 1131.23 190.22C1132.85 190.379 1133.63 189.452 1132.2 185.554C1131.46 183.578 1130.77 181.982 1130.07 180.271C1128.62 172.065 1124.96 161.698 1117.53 148.18C1112.3 138.651 1110.29 149.479 1107.01 150.96C1097.62 155.187 1088.68 160.426 1079.89 166.041C1079.71 164.17 1079.57 162.444 1079.34 160.416C1078.67 154.374 1076.01 165.081 1074.02 166.705C1072.52 167.921 1070.98 169.01 1069.47 170.185C1067.76 169.296 1066.11 168.597 1064.57 168.197C1063.44 160.403 1059.22 151.511 1049.49 141.873C1048.27 136.5 1045.28 129.681 1039.04 120.88C1032.81 112.106 1029.34 118.289 1025.28 119.147C1020.08 120.246 1016.04 124.209 1011.41 126.728C1009.42 127.812 1007.43 128.896 1005.43 129.979C1005.41 129.827 1005.37 129.657 1005.35 129.502C1006.05 128.832 1006.48 128.401 1008.65 126.737C1007.91 125.526 1007.16 124.102 1006.41 122.784C1009.24 119.447 1012.09 116.172 1014.95 112.9C1018.6 109.125 1022.24 105.321 1025.89 101.545C1032.93 94.2578 1050.12 76.3611 1058.14 68.3935C1059.95 66.599 1064.13 68.4843 1065.03 65.316C1067.12 65.5864 1068.23 64.6216 1066.83 60.5971C1063.55 51.1061 1058.81 39.9347 1053.97 31.8944C1052.7 29.3201 1051.42 26.7715 1050.16 24.4653C1048.76 21.9005 1047.91 22.0534 1047.37 23.6878C1044.28 22.4201 1043.8 29.9475 1041.71 32.008C1040.95 32.7594 1039.36 34.4484 1038.39 35.4292C1038.37 35.3659 1038.35 35.3303 1038.33 35.267C1025.61 46.7678 1013.45 59.5195 1001.6 72.9055C1000.13 68.5914 998.478 64.4134 996.374 60.5437C992.555 53.5171 990.475 59.8784 987.87 60.4665C982.215 61.7426 976.888 63.8509 971.635 66.1313C969.434 67.0871 967.289 68.187 965.11 69.1962C964.445 67.4884 963.705 65.7985 962.892 64.1179C959.442 57.0093 957.691 64.6575 955.313 65.4939C953.308 66.1995 951.372 67.0754 949.42 67.9119C948.537 67.0287 947.705 66.1545 946.724 65.2481C944.898 63.5628 943.348 62.821 941.913 62.4799C943.88 60.338 945.845 58.1908 947.71 55.831C952.602 49.6406 971.651 44.6596 941.449 2.83159C936.993 -3.33872 935.826 4.56617 933.232 5.95934C932.887 6.14598 932.495 6.41359 932.144 6.60584C931.201 6.16422 930.28 6.23963 929.362 6.50227C926.397 2.25575 925.494 7.33249 923.784 8.75768C915.13 11.6299 906.254 13.9419 897.125 15.6023C877.908 19.1287 858.545 22.3048 840.411 28.6069C806.692 40.3601 772.579 51.1488 739.615 64.7727C704.249 80.7513 669.699 98.6904 636.019 118.687C633.087 112.011 629.456 114.286 626.998 114.482C620.954 114.964 616.003 118.286 610.839 120.996C597.945 127.758 586.348 136.137 574.544 144.747C573.411 143.019 571.171 144.053 570.058 144.337C566.591 145.223 563.874 147.952 560.813 149.832C560.709 149.897 553.163 154.502 546.009 159.151C545.91 158.982 545.807 158.829 545.7 158.667C544.947 156.918 544.227 155.2 543.581 153.514C543.262 153.857 542.932 154.177 542.612 154.519C542.52 154.419 542.42 154.273 542.325 154.178C536.317 148.352 535.793 159.915 532.493 162.708C524.568 169.418 516.635 176.125 508.673 182.767C507.909 180.99 507.084 179.248 506.15 177.575C501.834 169.841 501.212 181.069 498.862 183.086C498.839 183.105 492.692 188.78 486.692 194.382C486.547 194.431 486.405 194.493 486.258 194.542C467.84 200.649 449.222 206.259 430.418 211.393C415.677 215.268 400.893 219.023 386.031 222.579C385.806 222.487 385.59 222.419 385.365 222.325C382.455 221.104 376.701 213.496 376.439 218.014C372.086 215.386 367.863 213.233 372.468 225.58C361.639 228.06 350.824 230.577 339.876 232.756C307.505 239.199 304.969 239.084 272.718 244.593C261.462 246.516 250.243 248.543 239.006 250.515C219.541 254.721 206.714 256.591 189.003 263.226C186.82 264.043 183.357 262.618 181.128 263.434L181.124 263.442ZM1130.59 413.58C1130.7 413.694 1130.81 413.826 1130.91 413.943C1132.71 411.774 1132.69 411.628 1130.59 413.58ZM325.65 275.551C333.216 274.244 340.505 272.954 354.26 270.216C356.75 269.721 359.189 269.099 361.672 268.586C363.253 272.505 364.983 276.496 366.685 280.474C367.284 282.781 368.046 285.122 368.943 287.502C368.327 287.763 367.709 288.017 367.091 288.273C365.79 286.239 364.144 283.83 362.553 281.48C362.124 280.398 361.726 279.266 361.287 278.216C360.304 275.864 359.521 275.488 358.839 276.163C354.779 271.325 352.752 276.617 349.649 276.484C315.419 275.022 332.07 275.909 325.65 275.551V275.551ZM191.475 653.836C192.538 656.462 193.616 659.091 194.764 661.664C187.935 667.533 181.099 673.39 174.279 679.279C173.231 679.578 172.19 679.894 171.14 680.185C176.341 672.746 181.465 665.153 186.588 657.556C187.07 657.209 190.638 654.587 191.475 653.836L191.475 653.836ZM210.918 721.191C212.609 724.052 214.32 726.782 216.041 729.407C214.363 730.117 212.936 731.294 212.008 733.389C206.377 736.767 202.878 738.762 195.514 743.294C195.46 743.191 195.412 743.09 195.357 742.985C196.681 740.631 197.94 738.128 199.438 736.171C202.173 732.596 206.7 726.881 210.918 721.191V721.191ZM768.68 664.918L781.802 659.572C776.861 664.987 771.867 670.348 766.095 673.817C763.794 675.201 761.104 675.651 758.684 676.751C757.549 677.269 757.121 677.575 756.169 678.031C760.305 673.586 764.518 669.307 768.681 664.919L768.68 664.918ZM522.999 775.479C522.995 775.834 523.043 776.224 523.085 776.613C521.815 777.856 520.346 779.286 518.982 780.59C520.322 778.889 521.656 777.174 522.999 775.479L522.999 775.479ZM980.599 604.512C980.224 606.22 979.096 607.522 976.798 608.179C978.036 606.897 979.347 605.766 980.599 604.512Z" stroke="black" stroke-width="2" mask="url(#path-1-inside-1_112_22)"/>
</g>
</svg>
